name D:\school\WTK\thesis\model\3dpredictsim\Results\batch_windlass\Pog_s1_tmt_bCst_d00_k500_WL20_ig24_act_TTC.mot
datacolumns 128
datarows 4
range 1.21552129 1.25198693
endheader
time	pelvis_tilt	pelvis_list	pelvis_rotation	pelvis_tx	pelvis_ty	pelvis_tz	hip_flexion_l	hip_adduction_l	hip_rotation_l	hip_flexion_r	hip_adduction_r	hip_rotation_r	knee_angle_l	knee_angle_r	ankle_angle_l	ankle_angle_r	subtalar_angle_l	subtalar_angle_r	tmt_angle_l	tmt_angle_r	mtp_angle_l	mtp_angle_r	lumbar_extension	lumbar_bending	lumbar_rotation	arm_flex_l	arm_add_l	arm_rot_l	arm_flex_r	arm_add_r	arm_rot_r	elbow_flex_l	elbow_flex_r	pro_sup_l	pro_sup_r	glut_med1_l/activation	glut_med2_l/activation	glut_med3_l/activation	glut_min1_l/activation	glut_min2_l/activation	glut_min3_l/activation	semimem_l/activation	semiten_l/activation	bifemlh_l/activation	bifemsh_l/activation	sar_l/activation	add_long_l/activation	add_brev_l/activation	add_mag1_l/activation	add_mag2_l/activation	add_mag3_l/activation	tfl_l/activation	pect_l/activation	grac_l/activation	glut_max1_l/activation	glut_max2_l/activation	glut_max3_l/activation	iliacus_l/activation	psoas_l/activation	quad_fem_l/activation	gem_l/activation	peri_l/activation	rect_fem_l/activation	vas_med_l/activation	vas_int_l/activation	vas_lat_l/activation	med_gas_l/activation	lat_gas_l/activation	soleus_l/activation	tib_post_l/activation	flex_dig_l/activation	flex_hal_l/activation	tib_ant_l/activation	per_brev_l/activation	per_long_l/activation	per_tert_l/activation	ext_dig_l/activation	ext_hal_l/activation	ercspn_l/activation	intobl_l/activation	extobl_l/activation	glut_med1_r/activation	glut_med2_r/activation	glut_med3_r/activation	glut_min1_r/activation	glut_min2_r/activation	glut_min3_r/activation	semimem_r/activation	semiten_r/activation	bifemlh_r/activation	bifemsh_r/activation	sar_r/activation	add_long_r/activation	add_brev_r/activation	add_mag1_r/activation	add_mag2_r/activation	add_mag3_r/activation	tfl_r/activation	pect_r/activation	grac_r/activation	glut_max1_r/activation	glut_max2_r/activation	glut_max3_r/activation	iliacus_r/activation	psoas_r/activation	quad_fem_r/activation	gem_r/activation	peri_r/activation	rect_fem_r/activation	vas_med_r/activation	vas_int_r/activation	vas_lat_r/activation	med_gas_r/activation	lat_gas_r/activation	soleus_r/activation	tib_post_r/activation	flex_dig_r/activation	flex_hal_r/activation	tib_ant_r/activation	per_brev_r/activation	per_long_r/activation	per_tert_r/activation	ext_dig_r/activation	ext_hal_r/activation	ercspn_r/activation	intobl_r/activation	extobl_r/activation	
          1.21552129	         -2.92876159	         -0.41660487	         10.15626534	          1.51940161	          0.85093342	         -0.00294589	        -17.62270593	         -3.37788340	          7.84793339	         34.33624991	         -2.30214790	         -3.81670078	        -14.69009647	        -21.01556682	         -7.73539122	         -5.26508335	         18.18079986	          7.89504404	         -5.74597477	         -0.06076631	         34.13733553	          0.47433000	          1.32659303	         -3.30296561	         -3.40410150	          2.07046830	        -13.48152278	         14.26213698	        -16.23007153	        -13.73582617	          7.95930497	         43.12614267	         22.92457441	         86.51662706	         86.51662706	          0.14777794	          0.08696588	          0.06833810	          0.19201886	          0.13353357	          0.08698180	          0.05010617	          0.05001649	          0.05001810	          0.05003763	          0.10466069	          0.05001309	          0.05000783	          0.05000926	          0.05002386	          0.05002397	          0.19343675	          0.05003929	          0.05003518	          0.05250432	          0.05050208	          0.05008329	          0.41084818	          0.54537857	          0.05564514	          0.05991898	          0.06455958	          0.31630996	          0.07188717	          0.06669651	          0.06265920	          0.17026905	          0.23925279	          0.05044906	          0.16688886	          0.18295223	          0.18759396	          0.05001106	          0.47067433	          0.38389761	          0.20223147	          0.26073162	          0.06024617	          0.05000104	          0.06093338	          0.05337762	          0.05001546	          0.05009700	          0.06009310	          0.05008623	          0.05009894	          0.05011758	          0.14909515	          0.09269494	          0.13250046	          0.10463808	          0.07224123	          0.06086983	          0.05083023	          0.06777080	          0.05031461	          0.07199995	          0.05014318	          0.05039528	          0.11392912	          0.05050141	          0.05995077	          0.07669584	          0.10448915	          0.09169944	          0.17809419	          0.07216527	          0.07418704	          0.05000624	          0.05000427	          0.05000459	          0.05000375	          0.08121967	          0.08691160	          0.07231208	          0.05032490	          0.05905038	          0.05989900	          0.33146274	          0.18178375	          0.11577008	          0.08481170	          0.43147528	          0.12967975	          0.05000330	          0.18188063	          0.18187985	
          1.22767650	         -2.92942571	         -0.37205652	         10.36964175	          1.53912452	          0.84976989	         -0.00258265	        -17.83893158	         -3.67380491	          7.63176292	         33.98590956	         -2.11916180	         -3.62083295	        -15.71675311	        -21.34482868	        -10.79422387	         -5.50239614	         18.54928638	          7.38294243	         -6.64046412	         -0.08958926	         36.03180955	          0.55848625	          1.55334680	         -3.10205371	         -3.49975852	          1.75950802	        -13.52609434	         14.72329122	        -17.72314831	        -13.71290030	          8.27151389	         44.14848633	         22.82348357	         86.51662706	         86.51662706	          0.12289459	          0.07231920	          0.05682845	          0.15967996	          0.11104444	          0.07233682	          0.05018443	          0.05001711	          0.05001451	          0.05006303	          0.08704717	          0.11495075	          0.15969790	          0.05874165	          0.05019309	          0.05006655	          0.16085733	          0.09407612	          0.05015237	          0.05010089	          0.05006772	          0.05004951	          0.34163992	          0.45350779	          0.05001017	          0.05003784	          0.05369065	          0.26302628	          0.06014541	          0.06015930	          0.05592540	          0.14158579	          0.19894885	          0.05000169	          0.13877536	          0.15213473	          0.15599359	          0.26710808	          0.50276098	          0.36506648	          0.55932590	          0.39524205	          0.05009972	          0.05000073	          0.05068051	          0.07231976	          0.08739438	          0.05002614	          0.05002123	          0.05997558	          0.05024389	          0.05009330	          0.12398044	          0.07708315	          0.11018227	          0.08701301	          0.06014190	          0.08696753	          0.08841807	          0.05639892	          0.10199509	          0.12849084	          0.05002415	          0.06146899	          0.09474959	          0.05002213	          0.05002078	          0.14286814	          0.08690840	          0.07625786	          0.14810412	          0.06003363	          0.12946632	          0.05001260	          0.13315343	          0.13142322	          0.12859288	          0.06753777	          0.07227114	          0.06013077	          0.05000815	          0.05002435	          0.05012884	          0.46654102	          0.15116194	          0.09626815	          0.22642063	          0.56200203	          0.43215251	          0.05000181	          0.15124162	          0.15124095	
          1.23983171	         -2.92281697	         -0.34487791	         10.54013517	          1.55907037	          0.84820537	         -0.00220751	        -17.84511727	         -3.94605681	          7.40255644	         33.56395990	         -1.86302095	         -3.34450208	        -17.17206012	        -22.36044138	        -13.69160172	         -5.55796375	         18.86840335	          6.80424521	         -7.22794998	         -0.07224645	         36.81966532	          0.63945826	          1.78828969	         -2.85850764	         -3.57989546	          1.39071611	        -13.59545114	         15.15190742	        -19.17635698	        -13.70027811	          8.67998232	         45.15251411	         22.64627945	         86.51662706	         86.51662706	          0.10219624	          0.06014396	          0.06013300	          0.13278696	          0.09234355	          0.06016455	          0.05058681	          0.05683913	          0.06012280	          0.05005545	          0.07239924	          0.21058146	          0.22403299	          0.24911061	          0.09187783	          0.06028327	          0.13376432	          0.07832977	          0.06018747	          0.05093769	          0.05143421	          0.06009360	          0.28408983	          0.37711476	          0.06015833	          0.06015816	          0.06013259	          0.21871813	          0.05002573	          0.05003565	          0.08851064	          0.11773454	          0.16543463	          0.05000083	          0.11539799	          0.12650964	          0.12971704	          0.39557246	          0.46621797	          0.33961279	          0.64786621	          0.56863828	          0.20286747	          0.07710053	          0.06012984	          0.06013891	          0.20162111	          0.14151918	          0.20659698	          0.05002219	          0.05003358	          0.05017044	          0.10309549	          0.06410099	          0.09162206	          0.07235630	          0.05002170	          0.07232455	          0.07353427	          0.17194286	          0.18731099	          0.14546216	          0.05015367	          0.05118102	          0.07879859	          0.14726791	          0.14607027	          0.17676037	          0.07227170	          0.06341544	          0.16482195	          0.05003207	          0.10767921	          0.06013161	          0.28056808	          0.25893400	          0.23811983	          0.05616064	          0.06009692	          0.05000127	          0.11496641	          0.05003621	          0.05000981	          0.53437269	          0.12569832	          0.08005167	          0.39692006	          0.46738310	          0.35936609	          0.05000206	          0.12576379	          0.12576327	
          1.25198693	         -2.91152509	         -0.32417341	         10.66374314	          1.57896921	          0.84643715	         -0.00184168	        -17.60293083	         -4.17699117	          7.17886026	         32.94986294	         -1.54925126	         -2.99850851	        -19.11686188	        -23.72085026	        -16.14935718	         -4.91963427	         19.10602354	          6.19740486	         -7.32746466	         -0.01879927	         35.62345594	          0.39318469	          2.01198343	         -2.58816856	         -3.64157294	          1.00839345	        -13.67533006	         15.55324002	        -20.52668581	        -13.69767290	          9.20880120	         46.10012673	         22.35627140	         86.51662706	         86.51662706	          0.08702306	          0.05001682	          0.05000569	          0.11042962	          0.07679378	          0.05003645	          0.05010722	          0.05000942	          0.05001187	          0.05000861	          0.06022410	          0.17513858	          0.24586744	          0.20715612	          0.07643681	          0.05014854	          0.11123844	          0.06542056	          0.05007382	          0.05009532	          0.05005551	          0.05002257	          0.23623556	          0.35155101	          0.05002836	          0.05003921	          0.05000673	          0.18187385	          0.10102684	          0.11038845	          0.07361723	          0.09790130	          0.13756628	          0.05000517	          0.09595887	          0.10520175	          0.10786729	          0.38497717	          0.39909758	          0.29583773	          0.69615896	          0.47284895	          0.43859301	          0.11919392	          0.05000143	          0.05001133	          0.19991139	          0.39229995	          0.56173521	          0.10329278	          0.14216463	          0.45645605	          0.08572886	          0.06014606	          0.07618912	          0.06018354	          0.06010155	          0.06014525	          0.06115198	          0.14298320	          0.15576609	          0.14773905	          0.05000767	          0.06013719	          0.06555375	          0.31046699	          0.25632996	          0.21620743	          0.06011221	          0.05273695	          0.13706788	          0.22316207	          0.32018126	          0.05000364	          0.23331362	          0.25931155	          0.31119646	          0.05000190	          0.05000377	          0.05000077	          0.17513679	          0.08996130	          0.05015346	          0.46694933	          0.10452463	          0.06656729	          0.33005926	          0.40246735	          0.35654363	          0.05787113	          0.10457804	          0.10457755	
